<?xml version="1.0" encoding="utf-8"?>
<!-- Generator: Adobe Illustrator 25.3.1, SVG Export Plug-In . SVG Version: 6.00 Build 0)  -->
<svg version="1.1" id="Layer_1" xmlns="http://www.w3.org/2000/svg" xmlns:xlink="http://www.w3.org/1999/xlink" x="0px" y="0px"
	 viewBox="0 0 160 90" style="enable-background:new 0 0 160 90;" xml:space="preserve">
<style type="text/css">
	.st0{fill:#FFFFFF;stroke:#000000;stroke-linecap:round;stroke-linejoin:bevel;stroke-miterlimit:10;}
	.st1{fill:#212121;stroke:#FFFFFF;stroke-width:0.5;stroke-miterlimit:10;}
	.st2{fill:#212121;}
	.st3{fill:none;stroke:#FFFFFF;stroke-width:2;stroke-miterlimit:10;}
	.st4{fill:#212121;stroke:#FFFFFF;stroke-width:2;stroke-miterlimit:10;}
	.st5{fill:#FFFFFF;}
	.st6{font-family:'DoHyeon-Regular';}
	.st7{font-size:36px;}
</style>
<path class="st0" d="M445.78,204.73"/>
<g>
	<rect class="st1" width="160" height="90"/>
	<g>
		<path class="st2" d="M110.04,36.87"/>
		<path class="st3" d="M110.04,36.87"/>
	</g>
	<g>
		<g>
			<path class="st2" d="M132.13,19.69c-0.55,0-1.36,0.27-1.81,0.59l-21.63,15.88c-0.44,0.33-0.39,0.42,0.12,0.21l39.16-16.29
				c0.51-0.21,0.47-0.38-0.08-0.38H132.13z"/>
			<path class="st3" d="M132.13,19.69c-0.55,0-1.36,0.27-1.81,0.59l-21.63,15.88c-0.44,0.33-0.39,0.42,0.12,0.21l39.16-16.29
				c0.51-0.21,0.47-0.38-0.08-0.38H132.13z"/>
		</g>
		<g>
			<path class="st2" d="M108.63,36.08c-0.41,0.37-0.5,0.29-0.21-0.18l9.58-15.37c0.29-0.47,0.98-0.85,1.53-0.85h6.2
				c0.55,0,0.67,0.3,0.26,0.67L108.63,36.08z"/>
			<path class="st3" d="M108.63,36.08c-0.41,0.37-0.5,0.29-0.21-0.18l9.58-15.37c0.29-0.47,0.98-0.85,1.53-0.85h6.2
				c0.55,0,0.67,0.3,0.26,0.67L108.63,36.08z"/>
		</g>
		<g>
			<path class="st2" d="M126.72,19.69"/>
			<path class="st3" d="M126.72,19.69"/>
		</g>
		<g>
			<path class="st2" d="M126.72,28.91"/>
			<path class="st3" d="M126.72,28.91"/>
		</g>
		<g>
			<path class="st2" d="M131.21,27.05"/>
			<path class="st3" d="M131.21,27.05"/>
		</g>
		<g>
			<path class="st2" d="M111.66,35.18"/>
			<path class="st3" d="M111.66,35.18"/>
		</g>
		<g>
			<path class="st2" d="M131.21,27.05"/>
			<path class="st3" d="M131.21,27.05"/>
		</g>
		<g>
			<path class="st2" d="M107.89,36.75l22.38-8.19c0.52-0.19,0.94-0.61,0.94-0.93c0-0.32,0-0.59,0-0.59"/>
			<path class="st3" d="M107.89,36.75l22.38-8.19c0.52-0.19,0.94-0.61,0.94-0.93c0-0.32,0-0.59,0-0.59"/>
		</g>
		<line class="st4" x1="126.46" y1="19.69" x2="125.83" y2="23.62"/>
	</g>
	<text transform="matrix(1 0 0 1 8.4594 56.2682)" class="st5 st6 st7">travelLog</text>
</g>
</svg>
